<svg xmlns="http://www.w3.org/2000/svg" width="115" height="53.005" viewBox="0 0 115 53.005">
  <g id="Group_13" data-name="Group 13" transform="translate(-0.176 0.005)" style="mix-blend-mode: multiply;isolation: isolate">
    <g id="Assets">
      <g id="Group_4" data-name="Group 4">
        <path id="Path_15" data-name="Path 15" d="M52.717,26.643A25.563,25.563,0,1,1,27.154,1.275,25.466,25.466,0,0,1,52.717,26.643Z" fill="#fff"/>
        <path id="Path_16" data-name="Path 16" d="M88.476.007v0L28.906-.005a40.081,40.081,0,0,0-7.254.479,26.5,26.5,0,0,0-2.536,51.419c.066.021.133.037.2.056.24.069.479.142.723.2,2.243.607,4.652.833,9.327.833L88.017,53q.229,0,.459,0a26.5,26.5,0,1,0,0-52.993Zm0,50.638c-.141,0-.284,0-.425,0h-.034L38.3,50.633a26.484,26.484,0,0,0-.07-48.28L86.1,2.36v0h2.373a24.142,24.142,0,1,1,0,48.282ZM51.4,26.456A24.352,24.352,0,1,1,27.053,2.29,24.259,24.259,0,0,1,51.4,26.456Z" fill="#161615"/>
        <g id="Group_3" data-name="Group 3">
          <path id="Path_17" data-name="Path 17" d="M34.534,14.52a.86.86,0,1,0-.867-.861A.867.867,0,0,0,34.534,14.52Z" fill="#161615"/>
          <path id="Path_18" data-name="Path 18" d="M31.368,8.489V12.93c0,1.012.488,1.531,1.568,1.531a1.514,1.514,0,0,0,.262-.024V13.364c-.381,0-.5-.117-.5-.446V8.489Z" fill="#161615"/>
          <path id="Path_19" data-name="Path 19" d="M32.032,7.605a.86.86,0,1,0-.865-.859A.867.867,0,0,0,32.032,7.605Z" fill="#161615"/>
          <path id="Path_20" data-name="Path 20" d="M28.537,11.94c.8.071.986.295.986.73,0,.519-.463.731-1.413.731a5.209,5.209,0,0,1-1.769-.33V14.2a5.645,5.645,0,0,0,1.958.317c1.9,0,2.53-.883,2.53-1.9,0-1.1-.466-1.625-2.244-1.778-.773-.071-.985-.248-.985-.66,0-.53.438-.73,1.139-.73a4.967,4.967,0,0,1,1.815.331V8.642a4.559,4.559,0,0,0-1.838-.294c-1.746,0-2.41.86-2.41,1.873S26.744,11.786,28.537,11.94Z" fill="#161615"/>
          <path id="Path_21" data-name="Path 21" d="M27.117,47.948s13.221-22.2,13.317-22.413H13.747C13.84,25.763,27.117,47.948,27.117,47.948Z" fill="#161615"/>
          <path id="Path_22" data-name="Path 22" d="M33.335,16.365a7.355,7.355,0,0,0-6.162,3.255,7.351,7.351,0,0,0-6.161-3.255,7.46,7.46,0,0,0-7.543,7H40.756A7.39,7.39,0,0,0,33.335,16.365Z" fill="#161615"/>
          <path id="Path_23" data-name="Path 23" d="M21.621,13.907a3.15,3.15,0,0,0,1.923.612c1.732,0,2.373-1.154,2.373-3.085s-.641-3.086-2.373-3.086a3.038,3.038,0,0,0-1.591.459V5.544H20.625v8.834h.783Zm.332-4.1a2.547,2.547,0,0,1,1.281-.342c1.164,0,1.342.884,1.342,1.968S24.4,13.4,23.235,13.4a2.544,2.544,0,0,1-1.281-.342Z" fill="#161615"/>
        </g>
      </g>
    </g>
    <g id="Text">
      <g id="Group_5" data-name="Group 5">
        <path id="Path_24" data-name="Path 24" d="M57.1,13.429V7.41H58v6.019Z" fill="#161615"/>
        <path id="Path_25" data-name="Path 25" d="M59.217,12.588a9.477,9.477,0,0,0,1.432.131,1.922,1.922,0,0,0,1.29-.337.811.811,0,0,0,.254-.617c0-.589-.367-.785-1.413-1.094s-1.714-.729-1.714-1.748a1.459,1.459,0,0,1,.584-1.2,2.4,2.4,0,0,1,1.5-.411,8.989,8.989,0,0,1,1.676.187l-.113.748a8.434,8.434,0,0,0-1.4-.131,1.914,1.914,0,0,0-1.045.215.654.654,0,0,0-.283.561c0,.617.48.795,1.479,1.094.979.3,1.648.711,1.648,1.767a1.617,1.617,0,0,1-.612,1.327,2.666,2.666,0,0,1-1.667.439,9.944,9.944,0,0,1-1.723-.177Z" fill="#161615"/>
        <path id="Path_26" data-name="Path 26" d="M63.787,10.419c0-2.038.782-3.1,2.618-3.1s2.618,1.065,2.618,3.1-.782,3.1-2.618,3.1S63.787,12.457,63.787,10.419Zm4.314,0c0-1.589-.48-2.3-1.7-2.3s-1.7.71-1.7,2.3.48,2.3,1.7,2.3S68.1,12.008,68.1,10.419Z" fill="#161615"/>
        <path id="Path_27" data-name="Path 27" d="M60.1,20.32a2.564,2.564,0,0,1-1.366.374,1.989,1.989,0,0,1-1.479-.524,2.042,2.042,0,0,1-.471-1.486,2,2,0,0,1,.48-1.458,2.252,2.252,0,0,1,1.658-.561,2.367,2.367,0,0,1,1.507.439,1.912,1.912,0,0,1,.574,1.524v2.234a1.921,1.921,0,0,1-.584,1.533,2.473,2.473,0,0,1-1.648.476,8.732,8.732,0,0,1-1.677-.187l.113-.748a7.574,7.574,0,0,0,1.413.15,1.678,1.678,0,0,0,1.187-.318A1.323,1.323,0,0,0,60.1,20.8Zm0-1.645c0-.823-.311-1.224-1.2-1.224s-1.2.4-1.2,1.224a1.319,1.319,0,0,0,.273.944,1.208,1.208,0,0,0,.923.29,3.641,3.641,0,0,0,1.2-.215Z" fill="#161615"/>
        <path id="Path_28" data-name="Path 28" d="M61.921,19.769c0-2.019.424-3.1,2.194-3.1s2.185,1.084,2.185,3.1-.424,3.1-2.185,3.1S61.921,21.778,61.921,19.769Zm3.476,0c0-1.43-.085-2.318-1.281-2.318-1.215,0-1.29.888-1.29,2.318S62.9,22.1,64.116,22.1C65.312,22.1,65.4,21.189,65.4,19.769Z" fill="#161615"/>
        <path id="Path_29" data-name="Path 29" d="M67.206,19.769c0-2.019.424-3.1,2.194-3.1s2.185,1.084,2.185,3.1-.424,3.1-2.185,3.1S67.206,21.778,67.206,19.769Zm3.475,0c0-1.43-.085-2.318-1.281-2.318-1.215,0-1.29.888-1.29,2.318S68.186,22.1,69.4,22.1C70.6,22.1,70.682,21.189,70.682,19.769Z" fill="#161615"/>
        <path id="Path_30" data-name="Path 30" d="M73.423,22.778V17.665l-1.262.477-.273-.607,1.62-.776h.82v6.019Z" fill="#161615"/>
        <path id="Path_31" data-name="Path 31" d="M76.033,18.432a.48.48,0,0,1,.48.477.472.472,0,0,1-.48.467.464.464,0,0,1-.471-.467A.472.472,0,0,1,76.033,18.432Zm0,3.431a.48.48,0,0,1,.48.476.472.472,0,0,1-.48.467.464.464,0,0,1-.471-.467A.472.472,0,0,1,76.033,21.862Z" fill="#161615"/>
        <path id="Path_32" data-name="Path 32" d="M77.381,22.778v-.71c1.677-1.449,2.873-2.58,2.873-3.58,0-.748-.565-1.019-1.2-1.019a4.506,4.506,0,0,0-1.535.327l-.254-.711a4.591,4.591,0,0,1,1.856-.42c1.215,0,2.053.607,2.053,1.794,0,1.309-1.328,2.44-2.619,3.524h2.7v.794Z" fill="#161615"/>
        <path id="Path_33" data-name="Path 33" d="M82.166,19.769c0-2.019.424-3.1,2.195-3.1s2.185,1.084,2.185,3.1-.424,3.1-2.185,3.1S82.166,21.778,82.166,19.769Zm3.476,0c0-1.43-.085-2.318-1.281-2.318-1.215,0-1.29.888-1.29,2.318s.075,2.328,1.29,2.328C85.557,22.1,85.642,21.189,85.642,19.769Z" fill="#161615"/>
        <path id="Path_34" data-name="Path 34" d="M88.384,22.778V17.665l-1.262.477-.273-.607,1.62-.776h.819v6.019Z" fill="#161615"/>
        <path id="Path_35" data-name="Path 35" d="M90.673,21.937a9.184,9.184,0,0,0,1.469.14,1.685,1.685,0,0,0,1.215-.327,1.277,1.277,0,0,0,.292-.916c0-.888-.405-1.187-1.262-1.187H90.673l.1-2.888h3.438v.794h-2.6l-.047,1.309h.952c1.29,0,2.053.542,2.053,1.981a1.992,1.992,0,0,1-.6,1.552,2.47,2.47,0,0,1-1.686.476,9.667,9.667,0,0,1-1.724-.177Z" fill="#161615"/>
      </g>
      <g id="Group_6" data-name="Group 6">
        <path id="Path_36" data-name="Path 36" d="M59.681,31.769c-.916-.532-1.655-.727-2.226-1.125a2.115,2.115,0,0,1-.807-1.993c0-1.468.563-2.235,1.893-2.235s1.886.768,1.886,2.235a2.442,2.442,0,0,1-.468,1.623,1.746,1.746,0,0,1-1.276.5v.013a5.228,5.228,0,0,1,1.276.4Zm.081-3.118c0-1.144-.346-1.656-1.221-1.656s-1.228.512-1.228,1.656.346,1.657,1.228,1.657S59.763,29.8,59.763,28.651Z" fill="#161615"/>
        <path id="Path_37" data-name="Path 37" d="M63.161,30.819l-.047-.263a1.616,1.616,0,0,1-.95.337A.973.973,0,0,1,61.1,29.809v-2.1h.617v2.04c0,.424.183.586.55.586A1.717,1.717,0,0,0,63,30.16V27.709h.618v3.111Z" fill="#161615"/>
        <path id="Path_38" data-name="Path 38" d="M66.355,30.819l-.068-.263a1.385,1.385,0,0,1-.916.33.959.959,0,0,1-1.038-.976.913.913,0,0,1,.333-.727,1.336,1.336,0,0,1,.841-.236c.217,0,.468.013.685.027v-.263a.518.518,0,0,0-.129-.39.81.81,0,0,0-.557-.135,4.448,4.448,0,0,0-.882.1l-.095-.512a3.941,3.941,0,0,1,1.031-.135,1.438,1.438,0,0,1,.943.242.963.963,0,0,1,.305.795v2.141Zm-.163-1.394c-.156-.013-.366-.02-.557-.02-.454,0-.672.162-.672.505a.477.477,0,0,0,.536.491,1.169,1.169,0,0,0,.692-.229Z" fill="#161615"/>
        <path id="Path_39" data-name="Path 39" d="M67.685,30.819V26.483H68.3v4.337Z" fill="#161615"/>
        <path id="Path_40" data-name="Path 40" d="M69.509,26.463a.346.346,0,0,1,.346.343.34.34,0,0,1-.346.337.335.335,0,0,1-.34-.337A.341.341,0,0,1,69.509,26.463ZM69.2,30.819V27.709h.617v3.111Z" fill="#161615"/>
        <path id="Path_41" data-name="Path 41" d="M72.379,30.685a1.7,1.7,0,0,1-.753.189.74.74,0,0,1-.8-.849V28.213h-.468v-.451l.488-.027.047-.916h.549v.889h.875v.5h-.875V29.93c0,.229.041.391.278.391a1.079,1.079,0,0,0,.455-.114Z" fill="#161615"/>
        <path id="Path_42" data-name="Path 42" d="M73.518,32.045c.183-.478.332-.9.441-1.226h-.332c-.319-.862-.645-1.993-.93-3.111h.645c.21.916.441,1.791.712,2.626H74.1c.251-.754.516-1.73.719-2.626h.631a36.168,36.168,0,0,1-1.33,4.337Z" fill="#161615"/>
        <path id="Path_43" data-name="Path 43" d="M60.482,38.3c-.034-1.158-.088-2.35-.142-3.495h-.034l-.991,2.761h-.7L57.625,34.8h-.034c-.055,1.145-.109,2.337-.143,3.495h-.658c.047-1.441.122-2.889.2-4.337h.95l1,2.876h.034l1-2.876h.95c.081,1.448.156,2.9.2,4.337Z" fill="#161615"/>
        <path id="Path_44" data-name="Path 44" d="M63.853,38.3l-.068-.263a1.386,1.386,0,0,1-.916.33.959.959,0,0,1-1.038-.976.914.914,0,0,1,.332-.727A1.338,1.338,0,0,1,63,36.427c.217,0,.468.013.685.027v-.263a.517.517,0,0,0-.129-.39A.808.808,0,0,0,63,35.666a4.448,4.448,0,0,0-.882.1l-.1-.512a3.948,3.948,0,0,1,1.031-.135,1.438,1.438,0,0,1,.943.242.963.963,0,0,1,.305.795V38.3Zm-.163-1.394c-.156-.013-.366-.02-.557-.02-.454,0-.672.162-.672.505a.477.477,0,0,0,.536.491,1.169,1.169,0,0,0,.692-.229Z" fill="#161615"/>
        <path id="Path_45" data-name="Path 45" d="M67.088,38.3v-2.04c0-.4-.183-.586-.529-.586a1.762,1.762,0,0,0-.76.2V38.3h-.617V35.188h.454l.054.283a1.6,1.6,0,0,1,.95-.35.975.975,0,0,1,1.065,1.084V38.3Z" fill="#161615"/>
        <path id="Path_46" data-name="Path 46" d="M70.391,38.3l-.068-.263a1.385,1.385,0,0,1-.916.33.959.959,0,0,1-1.038-.976.913.913,0,0,1,.333-.727,1.336,1.336,0,0,1,.841-.236c.217,0,.468.013.685.027v-.263a.518.518,0,0,0-.129-.39.81.81,0,0,0-.557-.135,4.448,4.448,0,0,0-.882.1l-.095-.512a3.941,3.941,0,0,1,1.031-.135,1.438,1.438,0,0,1,.943.242.963.963,0,0,1,.305.795V38.3Zm-.163-1.394c-.156-.013-.366-.02-.557-.02-.454,0-.672.162-.672.505a.477.477,0,0,0,.536.491,1.169,1.169,0,0,0,.692-.229Z" fill="#161615"/>
        <path id="Path_47" data-name="Path 47" d="M73.532,38.124a1.348,1.348,0,0,1-.746.242c-.889,0-1.215-.572-1.215-1.6,0-1.165.366-1.65,1.235-1.65a4.634,4.634,0,0,1,1.343.215v3.245a.969.969,0,0,1-.285.741,1.434,1.434,0,0,1-.964.269,5.744,5.744,0,0,1-1.011-.108l.081-.525a5.951,5.951,0,0,0,.841.081.9.9,0,0,0,.6-.141.545.545,0,0,0,.122-.384Zm0-2.4a3.987,3.987,0,0,0-.665-.061c-.536,0-.672.364-.672,1.111,0,.7.142,1.084.665,1.084a1.534,1.534,0,0,0,.672-.148Z" fill="#161615"/>
        <path id="Path_48" data-name="Path 48" d="M77.29,38.117a2.712,2.712,0,0,1-1.086.249c-.923,0-1.418-.572-1.418-1.6,0-.855.393-1.643,1.35-1.643.76,0,1.2.539,1.2,1.374a2.462,2.462,0,0,1-.047.471H75.411a1.014,1.014,0,0,0,.21.64.821.821,0,0,0,.624.215,2.4,2.4,0,0,0,.9-.2Zm-.536-1.636c0-.464-.136-.835-.638-.835-.454,0-.672.4-.7.835Z" fill="#161615"/>
        <path id="Path_49" data-name="Path 49" d="M81.72,38.3V36.238c0-.39-.19-.565-.536-.565a1.507,1.507,0,0,0-.726.215,2.444,2.444,0,0,1,.034.384V38.3h-.618V36.238c0-.39-.183-.565-.529-.565a1.449,1.449,0,0,0-.7.189V38.3h-.617V35.188h.454l.054.283a1.569,1.569,0,0,1,.943-.35.907.907,0,0,1,.814.4,1.564,1.564,0,0,1,.977-.4c.7,0,1.065.384,1.065,1.145V38.3Z" fill="#161615"/>
        <path id="Path_50" data-name="Path 50" d="M85.457,38.117a2.712,2.712,0,0,1-1.086.249c-.923,0-1.418-.572-1.418-1.6,0-.855.393-1.643,1.35-1.643.76,0,1.2.539,1.2,1.374a2.462,2.462,0,0,1-.047.471H83.577a1.016,1.016,0,0,0,.21.64.822.822,0,0,0,.624.215,2.4,2.4,0,0,0,.9-.2Zm-.536-1.636c0-.464-.135-.835-.638-.835-.454,0-.672.4-.7.835Z" fill="#161615"/>
        <path id="Path_51" data-name="Path 51" d="M88.1,38.3v-2.04c0-.4-.183-.586-.529-.586a1.76,1.76,0,0,0-.76.2V38.3H86.2V35.188h.455l.054.283a1.6,1.6,0,0,1,.95-.35.975.975,0,0,1,1.065,1.084V38.3Z" fill="#161615"/>
        <path id="Path_52" data-name="Path 52" d="M91.222,38.164a1.705,1.705,0,0,1-.753.189.74.74,0,0,1-.8-.849V35.693H89.2v-.451l.488-.027.047-.916h.55v.889h.875v.5h-.875V37.41c0,.229.041.391.278.391a1.081,1.081,0,0,0,.454-.114Z" fill="#161615"/>
      </g>
    </g>
  </g>
</svg>
