<svg xmlns="http://www.w3.org/2000/svg" xmlns:xlink="http://www.w3.org/1999/xlink" width="115" height="53" viewBox="0 0 115 53">
  <defs>
    <clipPath id="clip-path">
      <rect id="crop" width="115" height="53" transform="translate(0.176)" fill="none"/>
    </clipPath>
  </defs>
  <g id="Vector_Smart_Object" data-name="Vector Smart Object" transform="translate(-0.176)" clip-path="url(#clip-path)" style="mix-blend-mode: multiply;isolation: isolate">
    <g id="Assets">
      <g id="Group_8" data-name="Group 8">
        <path id="Path_53" data-name="Path 53" d="M52.717,26.643A25.563,25.563,0,1,1,27.154,1.275,25.466,25.466,0,0,1,52.717,26.643Z" fill="#fff"/>
        <path id="Path_54" data-name="Path 54" d="M88.476.007v0L28.906-.005a40.081,40.081,0,0,0-7.254.479,26.5,26.5,0,0,0-2.536,51.419c.066.021.133.037.2.056.24.069.479.142.723.2,2.243.607,4.652.833,9.327.833L88.017,53q.229,0,.459,0a26.5,26.5,0,1,0,0-52.993Zm0,50.638c-.141,0-.284,0-.425,0h-.034L38.3,50.633a26.484,26.484,0,0,0-.07-48.28L86.1,2.36v0h2.373a24.142,24.142,0,1,1,0,48.282ZM51.4,26.456A24.352,24.352,0,1,1,27.053,2.29,24.259,24.259,0,0,1,51.4,26.456Z" fill="#161615"/>
        <g id="Group_7" data-name="Group 7">
          <path id="Path_55" data-name="Path 55" d="M34.534,14.52a.86.86,0,1,0-.867-.861A.867.867,0,0,0,34.534,14.52Z" fill="#161615"/>
          <path id="Path_56" data-name="Path 56" d="M31.368,8.489V12.93c0,1.012.488,1.531,1.568,1.531a1.514,1.514,0,0,0,.262-.024V13.364c-.381,0-.5-.117-.5-.446V8.489Z" fill="#161615"/>
          <path id="Path_57" data-name="Path 57" d="M32.032,7.605a.86.86,0,1,0-.865-.859A.867.867,0,0,0,32.032,7.605Z" fill="#161615"/>
          <path id="Path_58" data-name="Path 58" d="M28.537,11.94c.8.071.986.295.986.73,0,.519-.463.731-1.413.731a5.209,5.209,0,0,1-1.769-.33V14.2a5.645,5.645,0,0,0,1.958.317c1.9,0,2.53-.883,2.53-1.9,0-1.1-.466-1.625-2.244-1.778-.773-.071-.985-.248-.985-.66,0-.53.438-.73,1.139-.73a4.967,4.967,0,0,1,1.815.331V8.642a4.559,4.559,0,0,0-1.838-.294c-1.746,0-2.41.86-2.41,1.873S26.744,11.786,28.537,11.94Z" fill="#161615"/>
          <path id="Path_59" data-name="Path 59" d="M27.117,47.948s13.221-22.2,13.317-22.413H13.747C13.84,25.763,27.117,47.948,27.117,47.948Z" fill="#161615"/>
          <path id="Path_60" data-name="Path 60" d="M33.335,16.365a7.355,7.355,0,0,0-6.162,3.255,7.351,7.351,0,0,0-6.161-3.255,7.46,7.46,0,0,0-7.543,7H40.756A7.39,7.39,0,0,0,33.335,16.365Z" fill="#161615"/>
          <path id="Path_61" data-name="Path 61" d="M21.621,13.907a3.15,3.15,0,0,0,1.923.612c1.732,0,2.373-1.154,2.373-3.085s-.641-3.086-2.373-3.086a3.038,3.038,0,0,0-1.591.459V5.544H20.625v8.834h.783Zm.332-4.1a2.547,2.547,0,0,1,1.281-.342c1.164,0,1.342.884,1.342,1.968S24.4,13.4,23.235,13.4a2.544,2.544,0,0,1-1.281-.342Z" fill="#161615"/>
        </g>
      </g>
    </g>
    <g id="Text">
      <g id="Group_9" data-name="Group 9">
        <path id="Path_62" data-name="Path 62" d="M57.1,13.429V7.41H58v6.019Z" fill="#161615"/>
        <path id="Path_63" data-name="Path 63" d="M59.217,12.588a9.477,9.477,0,0,0,1.432.131,1.922,1.922,0,0,0,1.29-.337.811.811,0,0,0,.254-.617c0-.589-.367-.785-1.413-1.094s-1.714-.729-1.714-1.748a1.459,1.459,0,0,1,.584-1.2,2.4,2.4,0,0,1,1.5-.411,8.989,8.989,0,0,1,1.676.187l-.113.748a8.434,8.434,0,0,0-1.4-.131,1.914,1.914,0,0,0-1.045.215.654.654,0,0,0-.283.561c0,.617.48.795,1.479,1.094.979.3,1.648.711,1.648,1.767a1.617,1.617,0,0,1-.612,1.327,2.666,2.666,0,0,1-1.667.439,9.944,9.944,0,0,1-1.723-.177Z" fill="#161615"/>
        <path id="Path_64" data-name="Path 64" d="M63.787,10.419c0-2.038.782-3.1,2.618-3.1s2.618,1.065,2.618,3.1-.782,3.1-2.618,3.1S63.787,12.457,63.787,10.419Zm4.314,0c0-1.589-.48-2.3-1.7-2.3s-1.7.71-1.7,2.3.48,2.3,1.7,2.3S68.1,12.008,68.1,10.419Z" fill="#161615"/>
        <path id="Path_65" data-name="Path 65" d="M57.842,22.778V17.665l-1.262.477-.273-.607,1.62-.776h.82v6.019Z" fill="#161615"/>
        <path id="Path_66" data-name="Path 66" d="M62.655,22.778v-1.14H59.811v-.7c.678-1.262,1.535-2.729,2.4-4.178h.98c-.876,1.42-1.686,2.794-2.411,4.094h1.874l.085-1.365h.82v1.365h1.017v.785H63.56v1.14Z" fill="#161615"/>
        <path id="Path_67" data-name="Path 67" d="M65.143,19.769c0-2.019.424-3.1,2.194-3.1s2.185,1.084,2.185,3.1-.424,3.1-2.185,3.1S65.143,21.778,65.143,19.769Zm3.475,0c0-1.43-.085-2.318-1.281-2.318-1.215,0-1.29.888-1.29,2.318s.075,2.328,1.29,2.328C68.534,22.1,68.618,21.189,68.618,19.769Z" fill="#161615"/>
        <path id="Path_68" data-name="Path 68" d="M70.428,19.769c0-2.019.424-3.1,2.194-3.1s2.185,1.084,2.185,3.1-.424,3.1-2.185,3.1S70.428,21.778,70.428,19.769Zm3.475,0c0-1.43-.085-2.318-1.281-2.318-1.215,0-1.29.888-1.29,2.318s.075,2.328,1.29,2.328C73.819,22.1,73.9,21.189,73.9,19.769Z" fill="#161615"/>
        <path id="Path_69" data-name="Path 69" d="M76.645,22.778V17.665l-1.262.477-.273-.607,1.62-.776h.82v6.019Z" fill="#161615"/>
        <path id="Path_70" data-name="Path 70" d="M79.255,18.432a.48.48,0,0,1,.48.477.472.472,0,0,1-.48.467.465.465,0,0,1-.471-.467A.473.473,0,0,1,79.255,18.432Zm0,3.431a.48.48,0,0,1,.48.476.472.472,0,0,1-.48.467.464.464,0,0,1-.471-.467A.472.472,0,0,1,79.255,21.862Z" fill="#161615"/>
        <path id="Path_71" data-name="Path 71" d="M80.6,22.778v-.71c1.677-1.449,2.873-2.58,2.873-3.58,0-.748-.565-1.019-1.2-1.019a4.5,4.5,0,0,0-1.535.327l-.254-.711a4.591,4.591,0,0,1,1.856-.42c1.215,0,2.053.607,2.053,1.794,0,1.309-1.328,2.44-2.618,3.524h2.7v.794Z" fill="#161615"/>
        <path id="Path_72" data-name="Path 72" d="M85.389,19.769c0-2.019.424-3.1,2.195-3.1s2.185,1.084,2.185,3.1-.424,3.1-2.185,3.1S85.389,21.778,85.389,19.769Zm3.475,0c0-1.43-.085-2.318-1.281-2.318-1.215,0-1.291.888-1.291,2.318s.075,2.328,1.291,2.328C88.779,22.1,88.864,21.189,88.864,19.769Z" fill="#161615"/>
        <path id="Path_73" data-name="Path 73" d="M91.606,22.778V17.665l-1.262.477-.273-.607,1.62-.776h.82v6.019Z" fill="#161615"/>
        <path id="Path_74" data-name="Path 74" d="M93.9,21.937a9.184,9.184,0,0,0,1.469.14,1.686,1.686,0,0,0,1.215-.327,1.279,1.279,0,0,0,.292-.916c0-.888-.4-1.187-1.262-1.187H93.9l.1-2.888h3.438v.794h-2.6l-.047,1.309h.951c1.29,0,2.053.542,2.053,1.981a1.992,1.992,0,0,1-.6,1.552,2.469,2.469,0,0,1-1.686.476,9.667,9.667,0,0,1-1.724-.177Z" fill="#161615"/>
      </g>
      <g id="Group_10" data-name="Group 10">
        <path id="Path_75" data-name="Path 75" d="M56.879,30.819V26.483h2.6v.573H57.53V28.3h1.594v.566H57.53v1.38h1.948v.572Z" fill="#161615"/>
        <path id="Path_76" data-name="Path 76" d="M62.089,30.819v-2.04c0-.4-.183-.586-.529-.586a1.76,1.76,0,0,0-.76.2v2.431h-.617V27.709h.454l.054.283a1.6,1.6,0,0,1,.95-.35.975.975,0,0,1,1.065,1.084v2.094Z" fill="#161615"/>
        <path id="Path_77" data-name="Path 77" d="M64.2,30.819a21.034,21.034,0,0,1-.964-3.111h.638a20.768,20.768,0,0,0,.739,2.626h.054a20.83,20.83,0,0,0,.74-2.626h.638a21.075,21.075,0,0,1-.963,3.111Z" fill="#161615"/>
        <path id="Path_78" data-name="Path 78" d="M66.931,26.463a.346.346,0,0,1,.346.343.34.34,0,0,1-.346.337.334.334,0,0,1-.339-.337A.34.34,0,0,1,66.931,26.463Zm-.305,4.356V27.709h.617v3.111Z" fill="#161615"/>
        <path id="Path_79" data-name="Path 79" d="M68.145,30.819V27.709h.462l.081.384h.027a1,1,0,0,1,.929-.444,2.186,2.186,0,0,1,.272.013l-.041.559a2.267,2.267,0,0,0-.373-.027,1.128,1.128,0,0,0-.74.236v2.39Z" fill="#161615"/>
        <path id="Path_80" data-name="Path 80" d="M71.632,30.887a1.356,1.356,0,0,1-.991-.343,1.716,1.716,0,0,1-.414-1.279,1.716,1.716,0,0,1,.414-1.279,1.6,1.6,0,0,1,1.981,0,1.715,1.715,0,0,1,.414,1.279,1.715,1.715,0,0,1-.414,1.279A1.356,1.356,0,0,1,71.632,30.887Zm.78-1.623a1.319,1.319,0,0,0-.224-.869.826.826,0,0,0-1.113,0,1.319,1.319,0,0,0-.224.869,1.3,1.3,0,0,0,.224.868.7.7,0,0,0,.557.215.736.736,0,0,0,.556-.215A1.3,1.3,0,0,0,72.412,29.264Z" fill="#161615"/>
        <path id="Path_81" data-name="Path 81" d="M75.642,30.819v-2.04c0-.4-.184-.586-.529-.586a1.763,1.763,0,0,0-.76.2v2.431h-.617V27.709h.454l.054.283a1.6,1.6,0,0,1,.95-.35.975.975,0,0,1,1.065,1.084v2.094Z" fill="#161615"/>
        <path id="Path_82" data-name="Path 82" d="M80.8,30.819V28.759c0-.39-.19-.565-.536-.565a1.506,1.506,0,0,0-.726.215,2.443,2.443,0,0,1,.034.384v2.027h-.617V28.759c0-.39-.183-.565-.529-.565a1.447,1.447,0,0,0-.7.189v2.437h-.617V27.709h.454l.054.283a1.568,1.568,0,0,1,.943-.35.906.906,0,0,1,.814.4,1.566,1.566,0,0,1,.977-.4c.7,0,1.065.384,1.065,1.145v2.033Z" fill="#161615"/>
        <path id="Path_83" data-name="Path 83" d="M84.534,30.638a2.714,2.714,0,0,1-1.086.249c-.923,0-1.418-.572-1.418-1.6,0-.855.393-1.643,1.35-1.643.76,0,1.2.539,1.2,1.374a2.463,2.463,0,0,1-.047.471h-1.88a1.014,1.014,0,0,0,.211.64.82.82,0,0,0,.624.215,2.4,2.4,0,0,0,.9-.2ZM84,29c0-.464-.136-.835-.638-.835-.454,0-.672.4-.7.835Z" fill="#161615"/>
        <path id="Path_84" data-name="Path 84" d="M87.179,30.819v-2.04c0-.4-.183-.586-.529-.586a1.763,1.763,0,0,0-.76.2v2.431h-.617V27.709h.455l.054.283a1.6,1.6,0,0,1,.95-.35A.975.975,0,0,1,87.8,28.725v2.094Z" fill="#161615"/>
        <path id="Path_85" data-name="Path 85" d="M90.3,30.685a1.706,1.706,0,0,1-.753.189.74.74,0,0,1-.8-.849V28.213h-.468v-.451l.488-.027.047-.916h.55v.889h.875v.5h-.875V29.93c0,.229.041.391.278.391a1.079,1.079,0,0,0,.454-.114Z" fill="#161615"/>
        <path id="Path_86" data-name="Path 86" d="M92.741,30.819l-.068-.263a1.386,1.386,0,0,1-.916.33.959.959,0,0,1-1.038-.976.914.914,0,0,1,.332-.727,1.336,1.336,0,0,1,.841-.236c.217,0,.468.013.685.027v-.263a.52.52,0,0,0-.129-.39.809.809,0,0,0-.557-.135,4.456,4.456,0,0,0-.882.1l-.095-.512a3.949,3.949,0,0,1,1.032-.135,1.437,1.437,0,0,1,.943.242.963.963,0,0,1,.305.795v2.141Zm-.163-1.394c-.156-.013-.366-.02-.556-.02-.455,0-.672.162-.672.505a.477.477,0,0,0,.536.491,1.166,1.166,0,0,0,.692-.229Z" fill="#161615"/>
        <path id="Path_87" data-name="Path 87" d="M94.07,30.819V26.483h.618v4.337Z" fill="#161615"/>
        <path id="Path_88" data-name="Path 88" d="M60.482,38.3c-.034-1.158-.088-2.35-.142-3.495h-.034l-.991,2.761h-.7L57.625,34.8h-.034c-.055,1.145-.109,2.337-.143,3.495h-.658c.047-1.441.122-2.889.2-4.337h.95l1,2.876h.034l1-2.876h.95c.081,1.448.156,2.9.2,4.337Z" fill="#161615"/>
        <path id="Path_89" data-name="Path 89" d="M63.853,38.3l-.068-.263a1.386,1.386,0,0,1-.916.33.959.959,0,0,1-1.038-.976.914.914,0,0,1,.332-.727A1.338,1.338,0,0,1,63,36.427c.217,0,.468.013.685.027v-.263a.517.517,0,0,0-.129-.39A.808.808,0,0,0,63,35.666a4.448,4.448,0,0,0-.882.1l-.1-.512a3.948,3.948,0,0,1,1.031-.135,1.438,1.438,0,0,1,.943.242.963.963,0,0,1,.305.795V38.3Zm-.163-1.394c-.156-.013-.366-.02-.557-.02-.454,0-.672.162-.672.505a.477.477,0,0,0,.536.491,1.169,1.169,0,0,0,.692-.229Z" fill="#161615"/>
        <path id="Path_90" data-name="Path 90" d="M67.088,38.3v-2.04c0-.4-.183-.586-.529-.586a1.762,1.762,0,0,0-.76.2V38.3h-.617V35.188h.454l.054.283a1.6,1.6,0,0,1,.95-.35.975.975,0,0,1,1.065,1.084V38.3Z" fill="#161615"/>
        <path id="Path_91" data-name="Path 91" d="M70.391,38.3l-.068-.263a1.385,1.385,0,0,1-.916.33.959.959,0,0,1-1.038-.976.913.913,0,0,1,.333-.727,1.336,1.336,0,0,1,.841-.236c.217,0,.468.013.685.027v-.263a.518.518,0,0,0-.129-.39.81.81,0,0,0-.557-.135,4.448,4.448,0,0,0-.882.1l-.095-.512a3.941,3.941,0,0,1,1.031-.135,1.438,1.438,0,0,1,.943.242.963.963,0,0,1,.305.795V38.3Zm-.163-1.394c-.156-.013-.366-.02-.557-.02-.454,0-.672.162-.672.505a.477.477,0,0,0,.536.491,1.169,1.169,0,0,0,.692-.229Z" fill="#161615"/>
        <path id="Path_92" data-name="Path 92" d="M73.532,38.124a1.348,1.348,0,0,1-.746.242c-.889,0-1.215-.572-1.215-1.6,0-1.165.366-1.65,1.235-1.65a4.634,4.634,0,0,1,1.343.215v3.245a.969.969,0,0,1-.285.741,1.434,1.434,0,0,1-.964.269,5.744,5.744,0,0,1-1.011-.108l.081-.525a5.951,5.951,0,0,0,.841.081.9.9,0,0,0,.6-.141.545.545,0,0,0,.122-.384Zm0-2.4a3.987,3.987,0,0,0-.665-.061c-.536,0-.672.364-.672,1.111,0,.7.142,1.084.665,1.084a1.534,1.534,0,0,0,.672-.148Z" fill="#161615"/>
        <path id="Path_93" data-name="Path 93" d="M77.29,38.117a2.712,2.712,0,0,1-1.086.249c-.923,0-1.418-.572-1.418-1.6,0-.855.393-1.643,1.35-1.643.76,0,1.2.539,1.2,1.374a2.462,2.462,0,0,1-.047.471H75.411a1.014,1.014,0,0,0,.21.64.821.821,0,0,0,.624.215,2.4,2.4,0,0,0,.9-.2Zm-.536-1.636c0-.464-.136-.835-.638-.835-.454,0-.672.4-.7.835Z" fill="#161615"/>
        <path id="Path_94" data-name="Path 94" d="M81.72,38.3V36.238c0-.39-.19-.565-.536-.565a1.507,1.507,0,0,0-.726.215,2.444,2.444,0,0,1,.034.384V38.3h-.618V36.238c0-.39-.183-.565-.529-.565a1.449,1.449,0,0,0-.7.189V38.3h-.617V35.188h.454l.054.283a1.569,1.569,0,0,1,.943-.35.907.907,0,0,1,.814.4,1.564,1.564,0,0,1,.977-.4c.7,0,1.065.384,1.065,1.145V38.3Z" fill="#161615"/>
        <path id="Path_95" data-name="Path 95" d="M85.457,38.117a2.712,2.712,0,0,1-1.086.249c-.923,0-1.418-.572-1.418-1.6,0-.855.393-1.643,1.35-1.643.76,0,1.2.539,1.2,1.374a2.462,2.462,0,0,1-.047.471H83.577a1.016,1.016,0,0,0,.21.64.822.822,0,0,0,.624.215,2.4,2.4,0,0,0,.9-.2Zm-.536-1.636c0-.464-.135-.835-.638-.835-.454,0-.672.4-.7.835Z" fill="#161615"/>
        <path id="Path_96" data-name="Path 96" d="M88.1,38.3v-2.04c0-.4-.183-.586-.529-.586a1.76,1.76,0,0,0-.76.2V38.3H86.2V35.188h.455l.054.283a1.6,1.6,0,0,1,.95-.35.975.975,0,0,1,1.065,1.084V38.3Z" fill="#161615"/>
        <path id="Path_97" data-name="Path 97" d="M91.222,38.164a1.705,1.705,0,0,1-.753.189.74.74,0,0,1-.8-.849V35.693H89.2v-.451l.488-.027.047-.916h.55v.889h.875v.5h-.875V37.41c0,.229.041.391.278.391a1.081,1.081,0,0,0,.454-.114Z" fill="#161615"/>
      </g>
    </g>
  </g>
</svg>
