<svg xmlns="http://www.w3.org/2000/svg" width="113" height="113" viewBox="0 0 113 113">
  <g id="Vector_Smart_Object" data-name="Vector Smart Object" transform="translate(-257.059 -32.1)">
    <g id="Group_12" data-name="Group 12">
      <g id="Group_11" data-name="Group 11">
        <path id="Path_98" data-name="Path 98" d="M267.99,83.515a7.957,7.957,0,0,0,3.459.86c1.433,0,2.19-.594,2.19-1.494,0-.859-.655-1.351-2.313-1.944-2.292-.8-3.786-2.067-3.786-4.073,0-2.354,1.965-4.155,5.219-4.155a8.451,8.451,0,0,1,3.52.7l-.7,2.517a6.56,6.56,0,0,0-2.886-.655c-1.351,0-2.006.614-2.006,1.33,0,.88.778,1.269,2.558,1.944,2.436.9,3.582,2.17,3.582,4.114,0,2.312-1.781,4.277-5.567,4.277a9.027,9.027,0,0,1-3.909-.839Z" fill="#1d1d1b"/>
        <path id="Path_99" data-name="Path 99" d="M282.134,86.728V81.079l-4.359-8.146h3.561l1.412,3.316c.43,1,.716,1.74,1.064,2.64h.041c.307-.86.634-1.658,1.044-2.64l1.392-3.316h3.5l-4.544,8.044v5.751Z" fill="#1d1d1b"/>
        <path id="Path_100" data-name="Path 100" d="M290.917,86.728V72.934h3.643l2.865,5.055a39.988,39.988,0,0,1,2.251,4.728h.061a51.2,51.2,0,0,1-.266-5.751V72.934h2.865V86.728h-3.275l-2.947-5.321a51.265,51.265,0,0,1-2.394-4.871l-.061.02c.082,1.822.123,3.766.123,6.017v4.155Z" fill="#1d1d1b"/>
        <path id="Path_101" data-name="Path 101" d="M323.03,73.118a27.391,27.391,0,0,1,4.155-.287c2.047,0,3.479.307,4.462,1.085a3.5,3.5,0,0,1,1.269,2.886,3.661,3.661,0,0,1-2.436,3.4v.061a3.479,3.479,0,0,1,1.842,2.579c.43,1.556.86,3.357,1.126,3.889h-3.193a17.247,17.247,0,0,1-.962-3.213c-.368-1.719-.962-2.19-2.231-2.21h-.942v5.424h-3.09Zm3.09,5.935h1.228c1.555,0,2.476-.777,2.476-1.985,0-1.269-.86-1.9-2.292-1.924a7.808,7.808,0,0,0-1.412.1Z" fill="#1d1d1b"/>
        <path id="Path_102" data-name="Path 102" d="M346.609,86.094a15.439,15.439,0,0,1-4.6.778,7.689,7.689,0,0,1-5.608-1.862,6.676,6.676,0,0,1-1.944-5.014c.021-4.584,3.357-7.2,7.88-7.2a9.5,9.5,0,0,1,3.827.676l-.655,2.5a7.643,7.643,0,0,0-3.213-.594c-2.6,0-4.564,1.474-4.564,4.462a4.518,4.518,0,0,0,5.874,4.318V81.264h-2.129V78.828h5.137Z" fill="#1d1d1b"/>
        <path id="Path_103" data-name="Path 103" d="M352.24,86.728V81.079l-4.36-8.146h3.561l1.412,3.316c.43,1,.716,1.74,1.064,2.64h.041c.307-.86.634-1.658,1.044-2.64l1.392-3.316h3.5l-4.544,8.044v5.751Z" fill="#1d1d1b"/>
        <rect id="Rectangle_4" data-name="Rectangle 4" width="13.408" height="2.795" transform="translate(319.69 75.732) rotate(-180)" fill="#1d1d1b"/>
        <rect id="Rectangle_5" data-name="Rectangle 5" width="13.408" height="2.795" transform="translate(319.69 86.912) rotate(-180)" fill="#1d1d1b"/>
        <rect id="Rectangle_6" data-name="Rectangle 6" width="13.408" height="2.795" transform="translate(319.69 81.322) rotate(-180)" fill="#1d1d1b"/>
        <path id="Path_104" data-name="Path 104" d="M342.886,101.829a1.8,1.8,0,0,1,1.839-1.9,1.891,1.891,0,1,1-1.839,1.9Z" fill="#1d1d1b"/>
        <path id="Path_105" data-name="Path 105" d="M277.965,103.32a8.9,8.9,0,0,1-3.541.593c-4.769,0-7.225-2.968-7.225-6.9,0-4.708,3.356-7.327,7.532-7.327a8.14,8.14,0,0,1,3.4.614l-.635,2.477a6.731,6.731,0,0,0-2.62-.512c-2.477,0-4.4,1.494-4.4,4.564,0,2.764,1.638,4.5,4.421,4.5a7.8,7.8,0,0,0,2.6-.45Z" fill="#1d1d1b"/>
        <path id="Path_106" data-name="Path 106" d="M280.014,90.1a27.445,27.445,0,0,1,4.155-.286c2.047,0,3.479.307,4.462,1.085a3.5,3.5,0,0,1,1.269,2.886,3.662,3.662,0,0,1-2.436,3.4v.061a3.482,3.482,0,0,1,1.842,2.579c.429,1.555.859,3.357,1.125,3.889h-3.193a17.25,17.25,0,0,1-.962-3.213c-.368-1.719-.962-2.19-2.231-2.21H283.1v5.424h-3.091Zm3.091,5.935h1.228c1.555,0,2.477-.777,2.477-1.985,0-1.269-.86-1.9-2.292-1.924a7.771,7.771,0,0,0-1.412.1Z" fill="#1d1d1b"/>
        <path id="Path_107" data-name="Path 107" d="M300.362,97.875h-5.076v3.275h5.67v2.558h-8.8v-13.8h8.515v2.558h-5.383v2.865h5.076Z" fill="#1d1d1b"/>
        <path id="Path_108" data-name="Path 108" d="M306.3,100.167l-.982,3.541h-3.234l4.217-13.8h4.093l4.278,13.8h-3.356l-1.065-3.541Zm3.95,0-1.31-5.26c-.245-.818-.491-1.842-.7-2.66H308.2c-.2.818-.409,1.862-.634,2.66l-1.269,5.26Z" fill="#1d1d1b"/>
        <path id="Path_109" data-name="Path 109" d="M317.478,92.533h-3.7v-2.62h10.6v2.62h-3.766v11.175h-3.131Z" fill="#1d1d1b"/>
        <path id="Path_110" data-name="Path 110" d="M329.167,89.913v13.8h-3.131v-13.8Z" fill="#1d1d1b"/>
        <path id="Path_111" data-name="Path 111" d="M335.125,103.708l-4.421-13.8h3.418l1.678,5.833c.471,1.638.9,3.213,1.228,4.933h.061c.348-1.658.778-3.295,1.249-4.871l1.76-5.895h3.315l-4.646,13.8Z" fill="#1d1d1b"/>
      </g>
      <circle id="Ellipse_2" data-name="Ellipse 2" cx="55.358" cy="55.358" r="55.358" transform="translate(258.201 33.243)" fill="none" stroke="#1d1d1b" stroke-miterlimit="10" stroke-width="2.285"/>
    </g>
  </g>
</svg>
