<svg xmlns="http://www.w3.org/2000/svg" width="60.849" height="47.86" viewBox="0 0 60.849 47.86">
  <path id="Path_138" data-name="Path 138" d="M32.511-68.642H10.391V-84.465q0-9.6,1.692-15.153a23.118,23.118,0,0,1,6.258-9.958,31.856,31.856,0,0,1,11.65-6.927l4.33,9.131q-6.612,2.2-9.486,6.14T21.8-90.762H32.511Zm36.919,0H47.31V-84.465q0-9.682,1.692-15.193a23,23,0,0,1,6.3-9.919A32.347,32.347,0,0,1,66.911-116.5l4.33,9.131q-6.612,2.2-9.486,6.14t-3.031,10.47H69.43Z" transform="translate(71.24 -68.643) rotate(180)" fill="#cbcbcb"/>
</svg>
